<svg xmlns="http://www.w3.org/2000/svg" xmlns:xlink="http://www.w3.org/1999/xlink" width="1280" zoomAndPan="magnify" viewBox="0 0 960 540.000001" height="720" preserveAspectRatio="xMidYMid meet" version="1.0"><defs><clipPath id="1e61bec560"><path d="M 202.117188 22.183594 L 757.589844 22.183594 L 757.589844 409 L 202.117188 409 Z M 202.117188 22.183594 " clip-rule="nonzero"/></clipPath><clipPath id="e3db2a9982"><path d="M 364 243 L 570 243 L 570 517.019531 L 364 517.019531 Z M 364 243 " clip-rule="nonzero"/></clipPath></defs><path fill="#f9f9f9" d="M 615.484375 392.589844 C 685 392.589844 741.351562 335.945312 741.351562 266.070312 C 741.351562 196.195312 685 139.550781 615.484375 139.550781 C 609.355469 139.550781 603.382812 140.140625 597.484375 140.992188 C 579.375 81.5625 524.386719 38.335938 459.332031 38.335938 C 379.53125 38.335938 314.839844 103.363281 314.839844 183.582031 C 314.839844 185.871094 315.074219 188.101562 315.179688 190.363281 C 261.453125 192.503906 218.515625 236.839844 218.515625 291.375 C 218.515625 347.273438 263.597656 392.589844 319.207031 392.589844 Z M 615.484375 392.589844 " fill-opacity="1" fill-rule="nonzero"/><path fill="#ededed" d="M 615.484375 332.207031 L 319.207031 332.207031 C 274.074219 332.207031 235.875 302.351562 223.085938 261.21875 C 220.128906 270.742188 218.515625 280.867188 218.515625 291.378906 C 218.515625 347.277344 263.601562 392.59375 319.207031 392.59375 L 615.484375 392.59375 C 685 392.59375 741.347656 335.949219 741.347656 266.074219 C 741.347656 255.664062 740.074219 245.558594 737.714844 235.878906 C 724.242188 291.171875 674.644531 332.207031 615.484375 332.207031 Z M 615.484375 332.207031 " fill-opacity="1" fill-rule="nonzero"/><g clip-path="url(#1e61bec560)"><path fill="#4a4e59" d="M 615.484375 408.691406 L 319.207031 408.691406 C 254.816406 408.691406 202.429688 356.066406 202.429688 291.375 C 202.429688 233.546875 243.710938 185.546875 298.933594 175.929688 C 302.921875 90.5 373.34375 22.234375 459.335938 22.234375 C 525.902344 22.234375 584.265625 62.472656 608.460938 123.660156 C 610.859375 123.519531 613.1875 123.449219 615.484375 123.449219 C 693.757812 123.449219 757.4375 187.425781 757.4375 266.070312 C 757.4375 344.714844 693.757812 408.691406 615.484375 408.691406 Z M 459.335938 54.4375 C 388.53125 54.4375 330.929688 112.371094 330.929688 183.578125 C 330.929688 184.691406 331.011719 185.78125 331.085938 186.875 C 331.148438 187.785156 331.210938 188.695312 331.253906 189.609375 C 331.453125 193.894531 329.9375 198.082031 327.039062 201.242188 C 324.144531 204.40625 320.105469 206.28125 315.824219 206.453125 C 270.28125 208.265625 234.605469 245.570312 234.605469 291.375 C 234.605469 338.304688 272.554688 376.488281 319.207031 376.488281 L 615.484375 376.488281 C 676.015625 376.488281 725.261719 326.953125 725.261719 266.070312 C 725.261719 205.191406 676.015625 155.652344 615.484375 155.652344 C 610.804688 155.652344 605.816406 156.058594 599.773438 156.925781 C 591.957031 158.0625 584.414062 153.289062 582.097656 145.6875 C 565.464844 91.109375 516.132812 54.4375 459.335938 54.4375 Z M 459.335938 54.4375 " fill-opacity="1" fill-rule="nonzero"/></g><path fill="#aed366" d="M 430.585938 505.058594 L 430.585938 346.375 C 388.574219 346.375 376.464844 346.375 376.464844 346.375 L 466.785156 255.96875 L 557.105469 346.375 C 557.105469 346.375 542.777344 346.375 502.980469 346.375 L 502.980469 505.058594 Z M 430.585938 505.058594 " fill-opacity="1" fill-rule="nonzero"/><g clip-path="url(#e3db2a9982)"><path fill="#4a4e59" d="M 502.980469 517.136719 C 496.316406 517.136719 490.917969 511.730469 490.917969 505.058594 L 490.917969 346.375 C 490.917969 339.703125 496.316406 334.296875 502.980469 334.296875 L 527.972656 334.296875 L 466.785156 273.050781 L 405.59375 334.296875 L 430.585938 334.296875 C 437.25 334.296875 442.652344 339.703125 442.652344 346.375 L 442.652344 505.058594 C 442.652344 511.726562 437.25 517.132812 430.585938 517.132812 C 423.925781 517.132812 418.523438 511.726562 418.523438 505.058594 L 418.523438 358.449219 L 376.464844 358.449219 C 371.585938 358.449219 367.183594 355.507812 365.320312 350.996094 C 363.449219 346.480469 364.480469 341.289062 367.933594 337.832031 L 458.253906 247.429688 C 462.964844 242.714844 470.605469 242.714844 475.316406 247.429688 L 565.636719 337.832031 C 569.089844 341.289062 570.121094 346.480469 568.25 350.996094 C 566.386719 355.507812 561.988281 358.449219 557.105469 358.449219 L 515.050781 358.449219 L 515.050781 505.058594 C 515.046875 511.726562 509.644531 517.136719 502.980469 517.136719 Z M 502.980469 517.136719 " fill-opacity="1" fill-rule="nonzero"/></g></svg>