<svg xmlns="http://www.w3.org/2000/svg" xmlns:xlink="http://www.w3.org/1999/xlink" width="1280" zoomAndPan="magnify" viewBox="0 0 960 540.000001" height="720" preserveAspectRatio="xMidYMid meet" version="1.0"><defs><clipPath id="fedb91c9fd"><path d="M 278.3125 48.074219 L 681.867188 48.074219 L 681.867188 491.234375 L 278.3125 491.234375 Z M 278.3125 48.074219 " clip-rule="nonzero"/></clipPath></defs><path fill="#854a87" d="M 551.769531 89.683594 L 354.847656 89.683594 L 354.84375 250.089844 C 354.84375 254.898438 350.945312 258.800781 346.140625 258.800781 C 341.332031 258.800781 337.4375 254.898438 337.4375 250.089844 L 337.4375 80.972656 C 337.4375 76.167969 341.332031 72.265625 346.140625 72.265625 L 557.574219 72.265625 C 559.902344 72.265625 562.117188 73.199219 563.75 74.84375 L 620.195312 131.304688 C 621.835938 132.941406 622.753906 135.144531 622.753906 137.460938 L 622.753906 250.09375 C 622.753906 254.902344 618.84375 258.804688 614.039062 258.804688 C 609.242188 258.804688 605.332031 254.902344 605.332031 250.09375 L 605.332031 143.265625 L 585.804688 143.269531 C 576.445312 143.269531 567.933594 139.441406 561.765625 133.269531 C 555.601562 127.101562 551.769531 118.589844 551.769531 109.21875 Z M 354.847656 449.628906 L 605.332031 449.628906 L 605.332031 404.261719 C 605.332031 399.453125 609.242188 395.554688 614.039062 395.554688 C 618.84375 395.554688 622.753906 399.453125 622.753906 404.261719 L 622.753906 458.335938 C 622.753906 463.144531 618.84375 467.042969 614.039062 467.042969 L 346.140625 467.042969 C 341.332031 467.042969 337.4375 463.144531 337.4375 458.335938 L 337.4375 404.261719 C 337.4375 399.453125 341.332031 395.554688 346.140625 395.554688 C 350.945312 395.554688 354.84375 399.453125 354.84375 404.261719 L 354.84375 449.628906 " fill-opacity="1" fill-rule="evenodd"/><path fill="#854a87" d="M 395.832031 172.28125 L 564.34375 172.28125 L 564.34375 186.792969 L 395.832031 186.792969 L 395.832031 172.28125 " fill-opacity="1" fill-rule="evenodd"/><path fill="#854a87" d="M 395.832031 206.730469 L 564.34375 206.730469 L 564.34375 221.234375 L 395.832031 221.234375 L 395.832031 206.730469 " fill-opacity="1" fill-rule="evenodd"/><path fill="#854a87" d="M 395.832031 137.839844 L 514.976562 137.839844 L 514.976562 152.351562 L 395.832031 152.351562 L 395.832031 137.839844 " fill-opacity="1" fill-rule="evenodd"/><path fill="#854a87" d="M 393.074219 364.015625 L 393.074219 290.335938 L 407.945312 290.335938 L 407.945312 364.015625 Z M 421.917969 364.015625 L 421.917969 290.335938 L 444.175781 290.335938 L 457.535156 340.601562 L 470.734375 290.335938 L 493.042969 290.335938 L 493.042969 364.015625 L 479.246094 364.015625 L 479.246094 306.007812 L 464.617188 364.015625 L 450.300781 364.015625 L 435.722656 306.007812 L 435.722656 364.015625 Z M 505.253906 326.921875 C 505.253906 319.253906 506.863281 312.429688 510.078125 306.464844 C 513.304688 300.507812 518 295.929688 524.203125 292.753906 C 528.921875 290.296875 534.804688 289.085938 541.835938 289.085938 C 550.976562 289.085938 558.117188 291 563.246094 294.832031 C 568.394531 298.671875 571.710938 303.972656 573.179688 310.746094 L 558.410156 313.507812 C 557.375 309.890625 555.417969 307.027344 552.546875 304.929688 C 549.683594 302.84375 546.117188 301.796875 541.835938 301.796875 C 535.339844 301.796875 530.167969 303.851562 526.332031 307.976562 C 522.492188 312.097656 520.585938 318.214844 520.585938 326.328125 C 520.585938 335.058594 522.523438 341.628906 526.421875 346.003906 C 530.289062 350.378906 535.386719 352.554688 541.675781 352.554688 C 544.800781 352.554688 547.921875 351.941406 551.054688 350.71875 C 554.179688 349.5 556.871094 348.007812 559.117188 346.277344 L 559.117188 336.921875 L 542.089844 336.921875 L 542.089844 324.503906 L 574.140625 324.503906 L 574.140625 353.855469 C 571.023438 356.878906 566.511719 359.539062 560.597656 361.835938 C 554.683594 364.117188 548.699219 365.265625 542.644531 365.265625 C 534.933594 365.265625 528.214844 363.652344 522.492188 360.425781 C 516.757812 357.179688 512.457031 352.574219 509.574219 346.546875 C 506.695312 340.53125 505.253906 333.988281 505.253906 326.921875 Z M 354.847656 410.054688 L 651.882812 410.054688 C 655.085938 410.054688 657.683594 407.464844 657.683594 404.261719 L 657.683594 250.089844 C 657.683594 246.886719 655.085938 244.285156 651.882812 244.285156 L 308.296875 244.285156 C 305.089844 244.285156 302.492188 246.886719 302.492188 250.089844 L 302.492188 404.261719 C 302.492188 407.464844 305.089844 410.054688 308.300781 410.054688 L 354.84375 410.054688 " fill-opacity="1" fill-rule="evenodd"/><g clip-path="url(#fedb91c9fd)"><path fill="#854a87" d="M 572.304688 66.289062 L 628.746094 122.75 C 632.648438 126.652344 634.84375 131.9375 634.84375 137.460938 L 634.84375 232.191406 L 651.882812 232.191406 C 661.765625 232.191406 669.785156 240.203125 669.785156 250.089844 L 669.785156 404.261719 C 669.785156 414.136719 661.765625 422.152344 651.882812 422.152344 L 634.84375 422.152344 L 634.84375 458.335938 C 634.84375 469.816406 625.523438 479.140625 614.039062 479.140625 L 346.140625 479.140625 C 334.660156 479.140625 325.34375 469.816406 325.34375 458.335938 L 325.34375 422.152344 L 308.300781 422.152344 C 298.421875 422.152344 290.402344 414.136719 290.402344 404.261719 L 290.402344 250.089844 C 290.402344 240.203125 298.421875 232.191406 308.300781 232.191406 L 325.34375 232.191406 L 325.34375 80.972656 C 325.34375 69.488281 334.660156 60.167969 346.140625 60.167969 L 557.574219 60.167969 C 563.105469 60.167969 568.394531 62.375 572.304688 66.289062 Z M 308.296875 220.09375 C 291.742188 220.09375 278.3125 233.53125 278.3125 250.089844 L 278.3125 404.261719 C 278.3125 420.8125 291.742188 434.246094 308.296875 434.246094 L 313.253906 434.246094 L 313.253906 458.335938 C 313.253906 476.5 327.984375 491.234375 346.140625 491.234375 L 614.035156 491.234375 C 632.191406 491.234375 646.933594 476.5 646.933594 458.335938 L 646.933594 434.246094 L 651.878906 434.246094 C 668.433594 434.246094 681.875 420.8125 681.875 404.261719 L 681.875 250.089844 C 681.875 233.53125 668.433594 220.09375 651.878906 220.09375 L 646.933594 220.09375 L 646.933594 137.460938 C 646.933594 128.730469 643.464844 120.371094 637.289062 114.199219 L 580.855469 57.738281 C 574.671875 51.554688 566.316406 48.074219 557.574219 48.074219 L 346.140625 48.074219 C 327.984375 48.074219 313.253906 62.816406 313.253906 80.972656 L 313.253906 220.097656 L 308.296875 220.097656 " fill-opacity="1" fill-rule="evenodd"/></g></svg>